<svg xmlns="http://www.w3.org/2000/svg" width="236" height="236" viewBox="0 0 236 236">
  <g fill="none" fill-rule="evenodd">
    <path fill="#E8E9ED" d="M8 4C8 6.20916778 6.20916778 8 4 8 1.79083222 8 0 6.20916778 0 4 0 1.79083222 1.79083222 0 4 0 6.20916778 0 8 1.79083222 8 4M53 4C53 6.20916778 51.2091678 8 49 8 46.7908322 8 45 6.20916778 45 4 45 1.79083222 46.7908322 0 49 0 51.2091678 0 53 1.79083222 53 4M99 4C99 6.20916778 97.2091678 8 95 8 92.7908322 8 91 6.20916778 91 4 91 1.79083222 92.7908322 0 95 0 97.2091678 0 99 1.79083222 99 4M145 4C145 6.20916778 143.209168 8 141 8 138.790832 8 137 6.20916778 137 4 137 1.79083222 138.790832 0 141 0 143.209168 0 145 1.79083222 145 4M190 4C190 6.20916778 188.209367 8 185.999555 8 183.790633 8 182 6.20916778 182 4 182 1.79083222 183.790633 0 185.999555 0 188.209367 0 190 1.79083222 190 4M236 4C236 6.20916778 234.208477 8 231.999555 8 229.790633 8 228 6.20916778 228 4 228 1.79083222 229.790633 0 231.999555 0 234.208477 0 236 1.79083222 236 4M8 49C8 51.2091678 6.20916778 53 4 53 1.79083222 53 0 51.2091678 0 49 0 46.7908322 1.79083222 45 4 45 6.20916778 45 8 46.7908322 8 49M53 49C53 51.2091678 51.2091678 53 49 53 46.7908322 53 45 51.2091678 45 49 45 46.7908322 46.7908322 45 49 45 51.2091678 45 53 46.7908322 53 49M99 49C99 51.2091678 97.2091678 53 95 53 92.7908322 53 91 51.2091678 91 49 91 46.7908322 92.7908322 45 95 45 97.2091678 45 99 46.7908322 99 49M145 49C145 51.2091678 143.209168 53 141 53 138.790832 53 137 51.2091678 137 49 137 46.7908322 138.790832 45 141 45 143.209168 45 145 46.7908322 145 49M190 49C190 51.2091678 188.209367 53 185.999555 53 183.790633 53 182 51.2091678 182 49 182 46.7908322 183.790633 45 185.999555 45 188.209367 45 190 46.7908322 190 49M236 49C236 51.2091678 234.208477 53 231.999555 53 229.790633 53 228 51.2091678 228 49 228 46.7908322 229.790633 45 231.999555 45 234.208477 45 236 46.7908322 236 49M8 95C8 97.2091678 6.20916778 99 4 99 1.79083222 99 0 97.2091678 0 95 0 92.7908322 1.79083222 91 4 91 6.20916778 91 8 92.7908322 8 95M53 95C53 97.2091678 51.2091678 99 49 99 46.7908322 99 45 97.2091678 45 95 45 92.7908322 46.7908322 91 49 91 51.2091678 91 53 92.7908322 53 95M99 95C99 97.2091678 97.2091678 99 95 99 92.7908322 99 91 97.2091678 91 95 91 92.7908322 92.7908322 91 95 91 97.2091678 91 99 92.7908322 99 95M145 95C145 97.2091678 143.209168 99 141 99 138.790832 99 137 97.2091678 137 95 137 92.7908322 138.790832 91 141 91 143.209168 91 145 92.7908322 145 95M190 95C190 97.2091678 188.209367 99 185.999555 99 183.790633 99 182 97.2091678 182 95 182 92.7908322 183.790633 91 185.999555 91 188.209367 91 190 92.7908322 190 95M236 95C236 97.2091678 234.208477 99 231.999555 99 229.790633 99 228 97.2091678 228 95 228 92.7908322 229.790633 91 231.999555 91 234.208477 91 236 92.7908322 236 95M8 141C8 143.209168 6.20916778 145 4 145 1.79083222 145 0 143.209168 0 141 0 138.790832 1.79083222 137 4 137 6.20916778 137 8 138.790832 8 141M53 141C53 143.209168 51.2091678 145 49 145 46.7908322 145 45 143.209168 45 141 45 138.790832 46.7908322 137 49 137 51.2091678 137 53 138.790832 53 141M99 141C99 143.209168 97.2091678 145 95 145 92.7908322 145 91 143.209168 91 141 91 138.790832 92.7908322 137 95 137 97.2091678 137 99 138.790832 99 141M145 141C145 143.209168 143.209168 145 141 145 138.790832 145 137 143.209168 137 141 137 138.790832 138.790832 137 141 137 143.209168 137 145 138.790832 145 141M190 141C190 143.209168 188.209367 145 185.999555 145 183.790633 145 182 143.209168 182 141 182 138.790832 183.790633 137 185.999555 137 188.209367 137 190 138.790832 190 141M236 141C236 143.209168 234.208477 145 231.999555 145 229.790633 145 228 143.209168 228 141 228 138.790832 229.790633 137 231.999555 137 234.208477 137 236 138.790832 236 141M8 186C8 188.209168 6.20916778 190 4 190 1.79083222 190 0 188.209168 0 186 0 183.790832 1.79083222 182 4 182 6.20916778 182 8 183.790832 8 186M53 186C53 188.209168 51.2091678 190 49 190 46.7908322 190 45 188.209168 45 186 45 183.790832 46.7908322 182 49 182 51.2091678 182 53 183.790832 53 186M99 186C99 188.209168 97.2091678 190 95 190 92.7908322 190 91 188.209168 91 186 91 183.790832 92.7908322 182 95 182 97.2091678 182 99 183.790832 99 186M145 186C145 188.209168 143.209168 190 141 190 138.790832 190 137 188.209168 137 186 137 183.790832 138.790832 182 141 182 143.209168 182 145 183.790832 145 186M190 186C190 188.209168 188.209367 190 185.999555 190 183.790633 190 182 188.209168 182 186 182 183.790832 183.790633 182 185.999555 182 188.209367 182 190 183.790832 190 186M236 186C236 188.209168 234.208477 190 231.999555 190 229.790633 190 228 188.209168 228 186 228 183.790832 229.790633 182 231.999555 182 234.208477 182 236 183.790832 236 186M8 232C8 234.209168 6.20916778 236 4 236 1.79083222 236 0 234.209168 0 232 0 229.790832 1.79083222 228 4 228 6.20916778 228 8 229.790832 8 232M53 232C53 234.209168 51.2091678 236 49 236 46.7908322 236 45 234.209168 45 232 45 229.790832 46.7908322 228 49 228 51.2091678 228 53 229.790832 53 232M99 232C99 234.209168 97.2091678 236 95 236 92.7908322 236 91 234.209168 91 232 91 229.790832 92.7908322 228 95 228 97.2091678 228 99 229.790832 99 232M145 232C145 234.209168 143.209168 236 141 236 138.790832 236 137 234.209168 137 232 137 229.790832 138.790832 228 141 228 143.209168 228 145 229.790832 145 232M190 232C190 234.209168 188.209367 236 185.999555 236 183.790633 236 182 234.209168 182 232 182 229.790832 183.790633 228 185.999555 228 188.209367 228 190 229.790832 190 232M236 232C236 234.209168 234.208477 236 231.999555 236 229.790633 236 228 234.209168 228 232 228 229.790832 229.790633 228 231.999555 228 234.208477 228 236 229.790832 236 232"/>
    <path stroke="#FBBC04" stroke-width="8" d="M205,121.884 C205,70.2457225 163.138812,28.384 111.501244,28.384 C59.8615573,28.384 18,70.2453536 18,121.884 C18,173.522646 59.8615573,215.384 111.501244,215.384 C163.138812,215.384 205,173.522278 205,121.884 Z"/>
  </g>
</svg>
