<svg xmlns="http://www.w3.org/2000/svg" xmlns:xlink="http://www.w3.org/1999/xlink" width="276" height="362" viewBox="0 0 276 362">
  <defs>
    <polygon id="livestream-bg_mobile-a" points=".019 .285 6.809 .285 6.809 7.491 .019 7.491"/>
    <polygon id="livestream-bg_mobile-c" points=".019 .24 6.809 .24 6.809 7.445 .019 7.445"/>
    <polygon id="livestream-bg_mobile-e" points=".019 .184 6.809 .184 6.809 6.973 .019 6.973"/>
    <polygon id="livestream-bg_mobile-g" points=".019 .141 6.809 .141 6.809 6.931 .019 6.931"/>
    <polygon id="livestream-bg_mobile-i" points=".019 .099 6.809 .099 6.809 6.888 .019 6.888"/>
    <polygon id="livestream-bg_mobile-k" points=".019 .055 6.809 .055 6.809 6.845 .019 6.845"/>
    <polygon id="livestream-bg_mobile-m" points=".019 .013 6.809 .013 6.809 6.802 .019 6.802"/>
    <polygon id="livestream-bg_mobile-o" points=".019 .54 6.809 .54 6.809 7.745 .019 7.745"/>
    <polygon id="livestream-bg_mobile-q" points=".019 .495 6.809 .495 6.809 7.7 .019 7.7"/>
    <polygon id="livestream-bg_mobile-s" points=".019 .449 6.809 .449 6.809 7.655 .019 7.655"/>
    <polygon id="livestream-bg_mobile-u" points=".019 .405 6.809 .405 6.809 7.61 .019 7.61"/>
    <polygon id="livestream-bg_mobile-w" points=".019 .359 6.809 .359 6.809 7.565 .019 7.565"/>
    <polygon id="livestream-bg_mobile-y" points=".019 .314 6.809 .314 6.809 7.519 .019 7.519"/>
    <polygon id="livestream-bg_mobile-A" points=".019 .269 6.809 .269 6.809 7.474 .019 7.474"/>
    <polygon id="livestream-bg_mobile-C" points=".019 .211 6.809 .211 6.809 7 .019 7"/>
    <polygon id="livestream-bg_mobile-E" points="0 0 198 0 198 199 0 199"/>
    <polygon id="livestream-bg_mobile-G" points="0 0 118 0 118 131 0 131"/>
  </defs>
  <g fill="none" fill-rule="evenodd" transform="translate(-178)">
    <g transform="translate(188 56)">
      <path fill="#E8E9ED" d="M7 3.99972242C7 5.93278611 5.43278611 7.5 3.49972242 7.5 1.56665874 7.5 0 5.93278611 0 3.99972242 0 2.06721389 1.56665874.5 3.49972242.5 5.43278611.5 7 2.06721389 7 3.99972242M27 3.99972242C27 5.93278611 25.4327861 7.5 23.4997224 7.5 21.5672139 7.5 20 5.93278611 20 3.99972242 20 2.06721389 21.5672139.5 23.4997224.5 25.4327861.5 27 2.06721389 27 3.99972242M47 3.99972242C47 5.93278611 45.4327861 7.5 43.4997224 7.5 41.5672139 7.5 40 5.93278611 40 3.99972242 40 2.06721389 41.5672139.5 43.4997224.5 45.4327861.5 47 2.06721389 47 3.99972242M67 3.99972242C67 5.93278611 65.4327861 7.5 63.5002776 7.5 61.5672139 7.5 60 5.93278611 60 3.99972242 60 2.06721389 61.5672139.5 63.5002776.5 65.4327861.5 67 2.06721389 67 3.99972242M87 3.99972242C87 5.93278611 85.4333413 7.5 83.5002776 7.5 81.5672139 7.5 80 5.93278611 80 3.99972242 80 2.06721389 81.5672139.5 83.5002776.5 85.4333413.5 87 2.06721389 87 3.99972242M108 3.99972242C108 5.93278611 106.433341 7.5 104.500278 7.5 102.567214 7.5 101 5.93278611 101 3.99972242 101 2.06721389 102.567214.5 104.500278.5 106.433341.5 108 2.06721389 108 3.99972242M128 3.99972242C128 5.93278611 126.433217 7.5 124.5 7.5 122.566783 7.5 121 5.93278611 121 3.99972242 121 2.06721389 122.566783.5 124.5.5 126.433217.5 128 2.06721389 128 3.99972242M148 3.99972242C148 5.93278611 146.432786 7.5 144.499722 7.5 142.566659 7.5 141 5.93278611 141 3.99972242 141 2.06721389 142.566659.5 144.499722.5 146.432786.5 148 2.06721389 148 3.99972242M168 3.99972242C168 5.93278611 166.432786 7.5 164.499722 7.5 162.566659 7.5 161 5.93278611 161 3.99972242 161 2.06721389 162.566659.5 164.499722.5 166.432786.5 168 2.06721389 168 3.99972242M188 3.99972242C188 5.93278611 186.432786 7.5 184.499722 7.5 182.567214 7.5 181 5.93278611 181 3.99972242 181 2.06721389 182.567214.5 184.499722.5 186.432786.5 188 2.06721389 188 3.99972242M208 3.99972242C208 5.93278611 206.432786 7.5 204.500278 7.5 202.567214 7.5 201 5.93278611 201 3.99972242 201 2.06721389 202.567214.5 204.500278.5 206.432786.5 208 2.06721389 208 3.99972242M228 3.99972242C228 5.93278611 226.432786 7.5 224.500278 7.5 222.567214 7.5 221 5.93278611 221 3.99972242 221 2.06721389 222.567214.5 224.500278.5 226.432786.5 228 2.06721389 228 3.99972242M249 3.99972242C249 5.93278611 247.433341 7.5 245.500278 7.5 243.567214 7.5 242 5.93278611 242 3.99972242 242 2.06721389 243.567214.5 245.500278.5 247.433341.5 249 2.06721389 249 3.99972242M269 3.99972242C269 5.93278611 267.433341 7.5 265.500278 7.5 263.567214 7.5 262 5.93278611 262 3.99972242 262 2.06721389 263.567214.5 265.500278.5 267.433341.5 269 2.06721389 269 3.99972242"/>
      <g transform="translate(282 .5)">
        <mask id="livestream-bg_mobile-b" fill="#fff">
          <use xlink:href="#livestream-bg_mobile-a"/>
        </mask>
        <path fill="#E8E9ED" d="M6.8089,3.88771429 C6.8089,5.87742857 5.28882308,7.49057143 3.4139,7.49057143 C1.53897692,7.49057143 0.0194384615,5.87742857 0.0194384615,3.88771429 C0.0194384615,1.89857143 1.53897692,0.285428571 3.4139,0.285428571 C5.28882308,0.285428571 6.8089,1.89857143 6.8089,3.88771429" mask="url(#livestream-bg_mobile-b)"/>
      </g>
      <path fill="#E8E9ED" d="M7 24.9997224C7 26.9327861 5.43278611 28.5 3.49972242 28.5 1.56665874 28.5 0 26.9327861 0 24.9997224 0 23.0666587 1.56665874 21.5 3.49972242 21.5 5.43278611 21.5 7 23.0666587 7 24.9997224M27 24.9997224C27 26.9327861 25.4327861 28.5 23.4997224 28.5 21.5672139 28.5 20 26.9327861 20 24.9997224 20 23.0666587 21.5672139 21.5 23.4997224 21.5 25.4327861 21.5 27 23.0666587 27 24.9997224M47 24.9997224C47 26.9327861 45.4327861 28.5 43.4997224 28.5 41.5672139 28.5 40 26.9327861 40 24.9997224 40 23.0666587 41.5672139 21.5 43.4997224 21.5 45.4327861 21.5 47 23.0666587 47 24.9997224M67 24.9997224C67 26.9327861 65.4327861 28.5 63.5002776 28.5 61.5672139 28.5 60 26.9327861 60 24.9997224 60 23.0666587 61.5672139 21.5 63.5002776 21.5 65.4327861 21.5 67 23.0666587 67 24.9997224M87 24.9997224C87 26.9327861 85.4333413 28.5 83.5002776 28.5 81.5672139 28.5 80 26.9327861 80 24.9997224 80 23.0666587 81.5672139 21.5 83.5002776 21.5 85.4333413 21.5 87 23.0666587 87 24.9997224M108 24.9997224C108 26.9327861 106.433341 28.5 104.500278 28.5 102.567214 28.5 101 26.9327861 101 24.9997224 101 23.0666587 102.567214 21.5 104.500278 21.5 106.433341 21.5 108 23.0666587 108 24.9997224M128 24.9997224C128 26.9327861 126.433217 28.5 124.5 28.5 122.566783 28.5 121 26.9327861 121 24.9997224 121 23.0666587 122.566783 21.5 124.5 21.5 126.433217 21.5 128 23.0666587 128 24.9997224M148 24.9997224C148 26.9327861 146.432786 28.5 144.499722 28.5 142.566659 28.5 141 26.9327861 141 24.9997224 141 23.0666587 142.566659 21.5 144.499722 21.5 146.432786 21.5 148 23.0666587 148 24.9997224M168 24.9997224C168 26.9327861 166.432786 28.5 164.499722 28.5 162.566659 28.5 161 26.9327861 161 24.9997224 161 23.0666587 162.566659 21.5 164.499722 21.5 166.432786 21.5 168 23.0666587 168 24.9997224M188 24.9997224C188 26.9327861 186.432786 28.5 184.499722 28.5 182.567214 28.5 181 26.9327861 181 24.9997224 181 23.0666587 182.567214 21.5 184.499722 21.5 186.432786 21.5 188 23.0666587 188 24.9997224M208 24.9997224C208 26.9327861 206.432786 28.5 204.500278 28.5 202.567214 28.5 201 26.9327861 201 24.9997224 201 23.0666587 202.567214 21.5 204.500278 21.5 206.432786 21.5 208 23.0666587 208 24.9997224M228 24.9997224C228 26.9327861 226.432786 28.5 224.500278 28.5 222.567214 28.5 221 26.9327861 221 24.9997224 221 23.0666587 222.567214 21.5 224.500278 21.5 226.432786 21.5 228 23.0666587 228 24.9997224M249 24.9997224C249 26.9327861 247.433341 28.5 245.500278 28.5 243.567214 28.5 242 26.9327861 242 24.9997224 242 23.0666587 243.567214 21.5 245.500278 21.5 247.433341 21.5 249 23.0666587 249 24.9997224M269 24.9997224C269 26.9327861 267.433341 28.5 265.500278 28.5 263.567214 28.5 262 26.9327861 262 24.9997224 262 23.0666587 263.567214 21.5 265.500278 21.5 267.433341 21.5 269 23.0666587 269 24.9997224"/>
      <g transform="translate(282 21.5)">
        <mask id="livestream-bg_mobile-d" fill="#fff">
          <use xlink:href="#livestream-bg_mobile-c"/>
        </mask>
        <path fill="#E8E9ED" d="M6.8089,3.84251429 C6.8089,5.83222857 5.28882308,7.44537143 3.4139,7.44537143 C1.53897692,7.44537143 0.0194384615,5.83222857 0.0194384615,3.84251429 C0.0194384615,1.8528 1.53897692,0.240228571 3.4139,0.240228571 C5.28882308,0.240228571 6.8089,1.8528 6.8089,3.84251429" mask="url(#livestream-bg_mobile-d)"/>
      </g>
      <path fill="#E8E9ED" d="M7 46.9997224C7 48.9327861 5.43278611 50.5 3.49972242 50.5 1.56665874 50.5 0 48.9327861 0 46.9997224 0 45.0666587 1.56665874 43.5 3.49972242 43.5 5.43278611 43.5 7 45.0666587 7 46.9997224M27 46.9997224C27 48.9327861 25.4327861 50.5 23.4997224 50.5 21.5672139 50.5 20 48.9327861 20 46.9997224 20 45.0666587 21.5672139 43.5 23.4997224 43.5 25.4327861 43.5 27 45.0666587 27 46.9997224M47 46.9997224C47 48.9327861 45.4327861 50.5 43.4997224 50.5 41.5672139 50.5 40 48.9327861 40 46.9997224 40 45.0666587 41.5672139 43.5 43.4997224 43.5 45.4327861 43.5 47 45.0666587 47 46.9997224M67 46.9997224C67 48.9327861 65.4327861 50.5 63.5002776 50.5 61.5672139 50.5 60 48.9327861 60 46.9997224 60 45.0666587 61.5672139 43.5 63.5002776 43.5 65.4327861 43.5 67 45.0666587 67 46.9997224M87 46.9997224C87 48.9327861 85.4333413 50.5 83.5002776 50.5 81.5672139 50.5 80 48.9327861 80 46.9997224 80 45.0666587 81.5672139 43.5 83.5002776 43.5 85.4333413 43.5 87 45.0666587 87 46.9997224M108 46.9997224C108 48.9327861 106.433341 50.5 104.500278 50.5 102.567214 50.5 101 48.9327861 101 46.9997224 101 45.0666587 102.567214 43.5 104.500278 43.5 106.433341 43.5 108 45.0666587 108 46.9997224M128 46.9997224C128 48.9327861 126.433217 50.5 124.5 50.5 122.566783 50.5 121 48.9327861 121 46.9997224 121 45.0666587 122.566783 43.5 124.5 43.5 126.433217 43.5 128 45.0666587 128 46.9997224M148 46.9997224C148 48.9327861 146.432786 50.5 144.499722 50.5 142.566659 50.5 141 48.9327861 141 46.9997224 141 45.0666587 142.566659 43.5 144.499722 43.5 146.432786 43.5 148 45.0666587 148 46.9997224M168 46.9997224C168 48.9327861 166.432786 50.5 164.499722 50.5 162.566659 50.5 161 48.9327861 161 46.9997224 161 45.0666587 162.566659 43.5 164.499722 43.5 166.432786 43.5 168 45.0666587 168 46.9997224M188 46.9997224C188 48.9327861 186.432786 50.5 184.499722 50.5 182.567214 50.5 181 48.9327861 181 46.9997224 181 45.0666587 182.567214 43.5 184.499722 43.5 186.432786 43.5 188 45.0666587 188 46.9997224M208 46.9997224C208 48.9327861 206.432786 50.5 204.500278 50.5 202.567214 50.5 201 48.9327861 201 46.9997224 201 45.0666587 202.567214 43.5 204.500278 43.5 206.432786 43.5 208 45.0666587 208 46.9997224M228 46.9997224C228 48.9327861 226.432786 50.5 224.500278 50.5 222.567214 50.5 221 48.9327861 221 46.9997224 221 45.0666587 222.567214 43.5 224.500278 43.5 226.432786 43.5 228 45.0666587 228 46.9997224M249 46.9997224C249 48.9327861 247.433341 50.5 245.500278 50.5 243.567214 50.5 242 48.9327861 242 46.9997224 242 45.0666587 243.567214 43.5 245.500278 43.5 247.433341 43.5 249 45.0666587 249 46.9997224M269 46.9997224C269 48.9327861 267.433341 50.5 265.500278 50.5 263.567214 50.5 262 48.9327861 262 46.9997224 262 45.0666587 263.567214 43.5 265.500278 43.5 267.433341 43.5 269 45.0666587 269 46.9997224"/>
      <g transform="translate(282 43.5)">
        <mask id="livestream-bg_mobile-f" fill="#fff">
          <use xlink:href="#livestream-bg_mobile-e"/>
        </mask>
        <path fill="#E8E9ED" d="M6.8089,3.57823846 C6.8089,5.45316154 5.28882308,6.97323846 3.4139,6.97323846 C1.53897692,6.97323846 0.0194384615,5.45316154 0.0194384615,3.57823846 C0.0194384615,1.70331538 1.53897692,0.183776923 3.4139,0.183776923 C5.28882308,0.183776923 6.8089,1.70331538 6.8089,3.57823846" mask="url(#livestream-bg_mobile-f)"/>
      </g>
      <path fill="#E8E9ED" d="M7 67.9997224C7 69.9327861 5.43278611 71.5 3.49972242 71.5 1.56665874 71.5 0 69.9327861 0 67.9997224 0 66.0666587 1.56665874 64.5 3.49972242 64.5 5.43278611 64.5 7 66.0666587 7 67.9997224M27 67.9997224C27 69.9327861 25.4327861 71.5 23.4997224 71.5 21.5672139 71.5 20 69.9327861 20 67.9997224 20 66.0666587 21.5672139 64.5 23.4997224 64.5 25.4327861 64.5 27 66.0666587 27 67.9997224M47 67.9997224C47 69.9327861 45.4327861 71.5 43.4997224 71.5 41.5672139 71.5 40 69.9327861 40 67.9997224 40 66.0666587 41.5672139 64.5 43.4997224 64.5 45.4327861 64.5 47 66.0666587 47 67.9997224M67 67.9997224C67 69.9327861 65.4327861 71.5 63.5002776 71.5 61.5672139 71.5 60 69.9327861 60 67.9997224 60 66.0666587 61.5672139 64.5 63.5002776 64.5 65.4327861 64.5 67 66.0666587 67 67.9997224M87 67.9997224C87 69.9327861 85.4333413 71.5 83.5002776 71.5 81.5672139 71.5 80 69.9327861 80 67.9997224 80 66.0666587 81.5672139 64.5 83.5002776 64.5 85.4333413 64.5 87 66.0666587 87 67.9997224M108 67.9997224C108 69.9327861 106.433341 71.5 104.500278 71.5 102.567214 71.5 101 69.9327861 101 67.9997224 101 66.0666587 102.567214 64.5 104.500278 64.5 106.433341 64.5 108 66.0666587 108 67.9997224M128 67.9997224C128 69.9327861 126.433217 71.5 124.5 71.5 122.566783 71.5 121 69.9327861 121 67.9997224 121 66.0666587 122.566783 64.5 124.5 64.5 126.433217 64.5 128 66.0666587 128 67.9997224M148 67.9997224C148 69.9327861 146.432786 71.5 144.499722 71.5 142.566659 71.5 141 69.9327861 141 67.9997224 141 66.0666587 142.566659 64.5 144.499722 64.5 146.432786 64.5 148 66.0666587 148 67.9997224M168 67.9997224C168 69.9327861 166.432786 71.5 164.499722 71.5 162.566659 71.5 161 69.9327861 161 67.9997224 161 66.0666587 162.566659 64.5 164.499722 64.5 166.432786 64.5 168 66.0666587 168 67.9997224M188 67.9997224C188 69.9327861 186.432786 71.5 184.499722 71.5 182.567214 71.5 181 69.9327861 181 67.9997224 181 66.0666587 182.567214 64.5 184.499722 64.5 186.432786 64.5 188 66.0666587 188 67.9997224M208 67.9997224C208 69.9327861 206.432786 71.5 204.500278 71.5 202.567214 71.5 201 69.9327861 201 67.9997224 201 66.0666587 202.567214 64.5 204.500278 64.5 206.432786 64.5 208 66.0666587 208 67.9997224M228 67.9997224C228 69.9327861 226.432786 71.5 224.500278 71.5 222.567214 71.5 221 69.9327861 221 67.9997224 221 66.0666587 222.567214 64.5 224.500278 64.5 226.432786 64.5 228 66.0666587 228 67.9997224M249 67.9997224C249 69.9327861 247.433341 71.5 245.500278 71.5 243.567214 71.5 242 69.9327861 242 67.9997224 242 66.0666587 243.567214 64.5 245.500278 64.5 247.433341 64.5 249 66.0666587 249 67.9997224M269 67.9997224C269 69.9327861 267.433341 71.5 265.500278 71.5 263.567214 71.5 262 69.9327861 262 67.9997224 262 66.0666587 263.567214 64.5 265.500278 64.5 267.433341 64.5 269 66.0666587 269 67.9997224"/>
      <g transform="translate(282 64.5)">
        <mask id="livestream-bg_mobile-h" fill="#fff">
          <use xlink:href="#livestream-bg_mobile-g"/>
        </mask>
        <path fill="#E8E9ED" d="M6.8089,3.53564615 C6.8089,5.41056923 5.28882308,6.93064615 3.4139,6.93064615 C1.53897692,6.93064615 0.0194384615,5.41056923 0.0194384615,3.53564615 C0.0194384615,1.66072308 1.53897692,0.141184615 3.4139,0.141184615 C5.28882308,0.141184615 6.8089,1.66072308 6.8089,3.53564615" mask="url(#livestream-bg_mobile-h)"/>
      </g>
      <path fill="#E8E9ED" d="M7 89C7 90.933217 5.43278611 92.5 3.49972242 92.5 1.56665874 92.5 0 90.933217 0 89 0 87.066783 1.56665874 85.5 3.49972242 85.5 5.43278611 85.5 7 87.066783 7 89M27 89C27 90.933217 25.4327861 92.5 23.4997224 92.5 21.5672139 92.5 20 90.933217 20 89 20 87.066783 21.5672139 85.5 23.4997224 85.5 25.4327861 85.5 27 87.066783 27 89M47 89C47 90.933217 45.4327861 92.5 43.4997224 92.5 41.5672139 92.5 40 90.933217 40 89 40 87.066783 41.5672139 85.5 43.4997224 85.5 45.4327861 85.5 47 87.066783 47 89M67 89C67 90.933217 65.4327861 92.5 63.5002776 92.5 61.5672139 92.5 60 90.933217 60 89 60 87.066783 61.5672139 85.5 63.5002776 85.5 65.4327861 85.5 67 87.066783 67 89M87 89C87 90.933217 85.4333413 92.5 83.5002776 92.5 81.5672139 92.5 80 90.933217 80 89 80 87.066783 81.5672139 85.5 83.5002776 85.5 85.4333413 85.5 87 87.066783 87 89M108 89C108 90.933217 106.433341 92.5 104.500278 92.5 102.567214 92.5 101 90.933217 101 89 101 87.066783 102.567214 85.5 104.500278 85.5 106.433341 85.5 108 87.066783 108 89M128 89C128 90.933217 126.433217 92.5 124.5 92.5 122.566783 92.5 121 90.933217 121 89 121 87.066783 122.566783 85.5 124.5 85.5 126.433217 85.5 128 87.066783 128 89M148 89C148 90.933217 146.432786 92.5 144.499722 92.5 142.566659 92.5 141 90.933217 141 89 141 87.066783 142.566659 85.5 144.499722 85.5 146.432786 85.5 148 87.066783 148 89M168 89C168 90.933217 166.432786 92.5 164.499722 92.5 162.566659 92.5 161 90.933217 161 89 161 87.066783 162.566659 85.5 164.499722 85.5 166.432786 85.5 168 87.066783 168 89M188 89C188 90.933217 186.432786 92.5 184.499722 92.5 182.567214 92.5 181 90.933217 181 89 181 87.066783 182.567214 85.5 184.499722 85.5 186.432786 85.5 188 87.066783 188 89M208 89C208 90.933217 206.432786 92.5 204.500278 92.5 202.567214 92.5 201 90.933217 201 89 201 87.066783 202.567214 85.5 204.500278 85.5 206.432786 85.5 208 87.066783 208 89M228 89C228 90.933217 226.432786 92.5 224.500278 92.5 222.567214 92.5 221 90.933217 221 89 221 87.066783 222.567214 85.5 224.500278 85.5 226.432786 85.5 228 87.066783 228 89M249 89C249 90.933217 247.433341 92.5 245.500278 92.5 243.567214 92.5 242 90.933217 242 89 242 87.066783 243.567214 85.5 245.500278 85.5 247.433341 85.5 249 87.066783 249 89M269 89C269 90.933217 267.433341 92.5 265.500278 92.5 263.567214 92.5 262 90.933217 262 89 262 87.066783 263.567214 85.5 265.500278 85.5 267.433341 85.5 269 87.066783 269 89"/>
      <g transform="translate(282 85.5)">
        <mask id="livestream-bg_mobile-j" fill="#fff">
          <use xlink:href="#livestream-bg_mobile-i"/>
        </mask>
        <path fill="#E8E9ED" d="M6.8089,3.49305385 C6.8089,5.36797692 5.28882308,6.88751538 3.4139,6.88751538 C1.53897692,6.88751538 0.0194384615,5.36797692 0.0194384615,3.49305385 C0.0194384615,1.61813077 1.53897692,0.0985923077 3.4139,0.0985923077 C5.28882308,0.0985923077 6.8089,1.61813077 6.8089,3.49305385" mask="url(#livestream-bg_mobile-j)"/>
      </g>
      <path fill="#E8E9ED" d="M7 111.000278C7 112.933341 5.43278611 114.5 3.49972242 114.5 1.56665874 114.5 0 112.933341 0 111.000278 0 109.067214 1.56665874 107.5 3.49972242 107.5 5.43278611 107.5 7 109.067214 7 111.000278M27 111.000278C27 112.933341 25.4327861 114.5 23.4997224 114.5 21.5672139 114.5 20 112.933341 20 111.000278 20 109.067214 21.5672139 107.5 23.4997224 107.5 25.4327861 107.5 27 109.067214 27 111.000278M47 111.000278C47 112.933341 45.4327861 114.5 43.4997224 114.5 41.5672139 114.5 40 112.933341 40 111.000278 40 109.067214 41.5672139 107.5 43.4997224 107.5 45.4327861 107.5 47 109.067214 47 111.000278M67 111.000278C67 112.933341 65.4327861 114.5 63.5002776 114.5 61.5672139 114.5 60 112.933341 60 111.000278 60 109.067214 61.5672139 107.5 63.5002776 107.5 65.4327861 107.5 67 109.067214 67 111.000278M87 111.000278C87 112.933341 85.4333413 114.5 83.5002776 114.5 81.5672139 114.5 80 112.933341 80 111.000278 80 109.067214 81.5672139 107.5 83.5002776 107.5 85.4333413 107.5 87 109.067214 87 111.000278M108 111.000278C108 112.933341 106.433341 114.5 104.500278 114.5 102.567214 114.5 101 112.933341 101 111.000278 101 109.067214 102.567214 107.5 104.500278 107.5 106.433341 107.5 108 109.067214 108 111.000278M128 111.000278C128 112.933341 126.433217 114.5 124.5 114.5 122.566783 114.5 121 112.933341 121 111.000278 121 109.067214 122.566783 107.5 124.5 107.5 126.433217 107.5 128 109.067214 128 111.000278M148 111.000278C148 112.933341 146.432786 114.5 144.499722 114.5 142.566659 114.5 141 112.933341 141 111.000278 141 109.067214 142.566659 107.5 144.499722 107.5 146.432786 107.5 148 109.067214 148 111.000278M168 111.000278C168 112.933341 166.432786 114.5 164.499722 114.5 162.566659 114.5 161 112.933341 161 111.000278 161 109.067214 162.566659 107.5 164.499722 107.5 166.432786 107.5 168 109.067214 168 111.000278M188 111.000278C188 112.933341 186.432786 114.5 184.499722 114.5 182.567214 114.5 181 112.933341 181 111.000278 181 109.067214 182.567214 107.5 184.499722 107.5 186.432786 107.5 188 109.067214 188 111.000278M208 111.000278C208 112.933341 206.432786 114.5 204.500278 114.5 202.567214 114.5 201 112.933341 201 111.000278 201 109.067214 202.567214 107.5 204.500278 107.5 206.432786 107.5 208 109.067214 208 111.000278M228 111.000278C228 112.933341 226.432786 114.5 224.500278 114.5 222.567214 114.5 221 112.933341 221 111.000278 221 109.067214 222.567214 107.5 224.500278 107.5 226.432786 107.5 228 109.067214 228 111.000278M249 111.000278C249 112.933341 247.433341 114.5 245.500278 114.5 243.567214 114.5 242 112.933341 242 111.000278 242 109.067214 243.567214 107.5 245.500278 107.5 247.433341 107.5 249 109.067214 249 111.000278M269 111.000278C269 112.933341 267.433341 114.5 265.500278 114.5 263.567214 114.5 262 112.933341 262 111.000278 262 109.067214 263.567214 107.5 265.500278 107.5 267.433341 107.5 269 109.067214 269 111.000278"/>
      <g transform="translate(282 107.5)">
        <mask id="livestream-bg_mobile-l" fill="#fff">
          <use xlink:href="#livestream-bg_mobile-k"/>
        </mask>
        <path fill="#E8E9ED" d="M6.8089,3.45046154 C6.8089,5.32538462 5.28882308,6.84492308 3.4139,6.84492308 C1.53897692,6.84492308 0.0194384615,5.32538462 0.0194384615,3.45046154 C0.0194384615,1.57553846 1.53897692,0.0554615385 3.4139,0.0554615385 C5.28882308,0.0554615385 6.8089,1.57553846 6.8089,3.45046154" mask="url(#livestream-bg_mobile-l)"/>
      </g>
      <path fill="#E8E9ED" d="M7 132.000278C7 133.933341 5.43278611 135.5 3.49972242 135.5 1.56665874 135.5 0 133.933341 0 132.000278 0 130.067214 1.56665874 128.5 3.49972242 128.5 5.43278611 128.5 7 130.067214 7 132.000278M27 132.000278C27 133.933341 25.4327861 135.5 23.4997224 135.5 21.5672139 135.5 20 133.933341 20 132.000278 20 130.067214 21.5672139 128.5 23.4997224 128.5 25.4327861 128.5 27 130.067214 27 132.000278M47 132.000278C47 133.933341 45.4327861 135.5 43.4997224 135.5 41.5672139 135.5 40 133.933341 40 132.000278 40 130.067214 41.5672139 128.5 43.4997224 128.5 45.4327861 128.5 47 130.067214 47 132.000278M67 132.000278C67 133.933341 65.4327861 135.5 63.5002776 135.5 61.5672139 135.5 60 133.933341 60 132.000278 60 130.067214 61.5672139 128.5 63.5002776 128.5 65.4327861 128.5 67 130.067214 67 132.000278M87 132.000278C87 133.933341 85.4333413 135.5 83.5002776 135.5 81.5672139 135.5 80 133.933341 80 132.000278 80 130.067214 81.5672139 128.5 83.5002776 128.5 85.4333413 128.5 87 130.067214 87 132.000278M108 132.000278C108 133.933341 106.433341 135.5 104.500278 135.5 102.567214 135.5 101 133.933341 101 132.000278 101 130.067214 102.567214 128.5 104.500278 128.5 106.433341 128.5 108 130.067214 108 132.000278M128 132.000278C128 133.933341 126.433217 135.5 124.5 135.5 122.566783 135.5 121 133.933341 121 132.000278 121 130.067214 122.566783 128.5 124.5 128.5 126.433217 128.5 128 130.067214 128 132.000278M148 132.000278C148 133.933341 146.432786 135.5 144.499722 135.5 142.566659 135.5 141 133.933341 141 132.000278 141 130.067214 142.566659 128.5 144.499722 128.5 146.432786 128.5 148 130.067214 148 132.000278M168 132.000278C168 133.933341 166.432786 135.5 164.499722 135.5 162.566659 135.5 161 133.933341 161 132.000278 161 130.067214 162.566659 128.5 164.499722 128.5 166.432786 128.5 168 130.067214 168 132.000278M188 132.000278C188 133.933341 186.432786 135.5 184.499722 135.5 182.567214 135.5 181 133.933341 181 132.000278 181 130.067214 182.567214 128.5 184.499722 128.5 186.432786 128.5 188 130.067214 188 132.000278M208 132.000278C208 133.933341 206.432786 135.5 204.500278 135.5 202.567214 135.5 201 133.933341 201 132.000278 201 130.067214 202.567214 128.5 204.500278 128.5 206.432786 128.5 208 130.067214 208 132.000278M228 132.000278C228 133.933341 226.432786 135.5 224.500278 135.5 222.567214 135.5 221 133.933341 221 132.000278 221 130.067214 222.567214 128.5 224.500278 128.5 226.432786 128.5 228 130.067214 228 132.000278M249 132.000278C249 133.933341 247.433341 135.5 245.500278 135.5 243.567214 135.5 242 133.933341 242 132.000278 242 130.067214 243.567214 128.5 245.500278 128.5 247.433341 128.5 249 130.067214 249 132.000278M269 132.000278C269 133.933341 267.433341 135.5 265.500278 135.5 263.567214 135.5 262 133.933341 262 132.000278 262 130.067214 263.567214 128.5 265.500278 128.5 267.433341 128.5 269 130.067214 269 132.000278"/>
      <g transform="translate(282 128.5)">
        <mask id="livestream-bg_mobile-n" fill="#fff">
          <use xlink:href="#livestream-bg_mobile-m"/>
        </mask>
        <path fill="#E8E9ED" d="M6.8089,3.40786923 C6.8089,5.28279231 5.28882308,6.80233077 3.4139,6.80233077 C1.53897692,6.80233077 0.0194384615,5.28279231 0.0194384615,3.40786923 C0.0194384615,1.53294615 1.53897692,0.0128692308 3.4139,0.0128692308 C5.28882308,0.0128692308 6.8089,1.53294615 6.8089,3.40786923" mask="url(#livestream-bg_mobile-n)"/>
      </g>
      <path fill="#E8E9ED" d="M7 153.000278C7 154.933341 5.43278611 156.5 3.49972242 156.5 1.56665874 156.5 0 154.933341 0 153.000278 0 151.067214 1.56665874 149.5 3.49972242 149.5 5.43278611 149.5 7 151.067214 7 153.000278M27 153.000278C27 154.933341 25.4327861 156.5 23.4997224 156.5 21.5672139 156.5 20 154.933341 20 153.000278 20 151.067214 21.5672139 149.5 23.4997224 149.5 25.4327861 149.5 27 151.067214 27 153.000278M47 153.000278C47 154.933341 45.4327861 156.5 43.4997224 156.5 41.5672139 156.5 40 154.933341 40 153.000278 40 151.067214 41.5672139 149.5 43.4997224 149.5 45.4327861 149.5 47 151.067214 47 153.000278M67 153.000278C67 154.933341 65.4327861 156.5 63.5002776 156.5 61.5672139 156.5 60 154.933341 60 153.000278 60 151.067214 61.5672139 149.5 63.5002776 149.5 65.4327861 149.5 67 151.067214 67 153.000278M87 153.000278C87 154.933341 85.4333413 156.5 83.5002776 156.5 81.5672139 156.5 80 154.933341 80 153.000278 80 151.067214 81.5672139 149.5 83.5002776 149.5 85.4333413 149.5 87 151.067214 87 153.000278M108 153.000278C108 154.933341 106.433341 156.5 104.500278 156.5 102.567214 156.5 101 154.933341 101 153.000278 101 151.067214 102.567214 149.5 104.500278 149.5 106.433341 149.5 108 151.067214 108 153.000278M128 153.000278C128 154.933341 126.433217 156.5 124.5 156.5 122.566783 156.5 121 154.933341 121 153.000278 121 151.067214 122.566783 149.5 124.5 149.5 126.433217 149.5 128 151.067214 128 153.000278M148 153.000278C148 154.933341 146.432786 156.5 144.499722 156.5 142.566659 156.5 141 154.933341 141 153.000278 141 151.067214 142.566659 149.5 144.499722 149.5 146.432786 149.5 148 151.067214 148 153.000278M168 153.000278C168 154.933341 166.432786 156.5 164.499722 156.5 162.566659 156.5 161 154.933341 161 153.000278 161 151.067214 162.566659 149.5 164.499722 149.5 166.432786 149.5 168 151.067214 168 153.000278M188 153.000278C188 154.933341 186.432786 156.5 184.499722 156.5 182.567214 156.5 181 154.933341 181 153.000278 181 151.067214 182.567214 149.5 184.499722 149.5 186.432786 149.5 188 151.067214 188 153.000278M208 153.000278C208 154.933341 206.432786 156.5 204.500278 156.5 202.567214 156.5 201 154.933341 201 153.000278 201 151.067214 202.567214 149.5 204.500278 149.5 206.432786 149.5 208 151.067214 208 153.000278M228 153.000278C228 154.933341 226.432786 156.5 224.500278 156.5 222.567214 156.5 221 154.933341 221 153.000278 221 151.067214 222.567214 149.5 224.500278 149.5 226.432786 149.5 228 151.067214 228 153.000278M249 153.000278C249 154.933341 247.433341 156.5 245.500278 156.5 243.567214 156.5 242 154.933341 242 153.000278 242 151.067214 243.567214 149.5 245.500278 149.5 247.433341 149.5 249 151.067214 249 153.000278M269 153.000278C269 154.933341 267.433341 156.5 265.500278 156.5 263.567214 156.5 262 154.933341 262 153.000278 262 151.067214 263.567214 149.5 265.500278 149.5 267.433341 149.5 269 151.067214 269 153.000278"/>
      <g transform="translate(282 149.5)">
        <mask id="livestream-bg_mobile-p" fill="#fff">
          <use xlink:href="#livestream-bg_mobile-o"/>
        </mask>
        <path fill="#E8E9ED" d="M6.8089,4.14274286 C6.8089,6.13245714 5.28882308,7.74502857 3.4139,7.74502857 C1.53897692,7.74502857 0.0194384615,6.13245714 0.0194384615,4.14274286 C0.0194384615,2.15302857 1.53897692,0.539885714 3.4139,0.539885714 C5.28882308,0.539885714 6.8089,2.15302857 6.8089,4.14274286" mask="url(#livestream-bg_mobile-p)"/>
      </g>
      <path fill="#E8E9ED" d="M7 174.000278C7 175.932786 5.43278611 177.5 3.49972242 177.5 1.56665874 177.5 0 175.932786 0 174.000278 0 172.067214 1.56665874 170.5 3.49972242 170.5 5.43278611 170.5 7 172.067214 7 174.000278M27 174.000278C27 175.932786 25.4327861 177.5 23.4997224 177.5 21.5672139 177.5 20 175.932786 20 174.000278 20 172.067214 21.5672139 170.5 23.4997224 170.5 25.4327861 170.5 27 172.067214 27 174.000278M47 174.000278C47 175.932786 45.4327861 177.5 43.4997224 177.5 41.5672139 177.5 40 175.932786 40 174.000278 40 172.067214 41.5672139 170.5 43.4997224 170.5 45.4327861 170.5 47 172.067214 47 174.000278M67 174.000278C67 175.932786 65.4327861 177.5 63.5002776 177.5 61.5672139 177.5 60 175.932786 60 174.000278 60 172.067214 61.5672139 170.5 63.5002776 170.5 65.4327861 170.5 67 172.067214 67 174.000278M87 174.000278C87 175.932786 85.4333413 177.5 83.5002776 177.5 81.5672139 177.5 80 175.932786 80 174.000278 80 172.067214 81.5672139 170.5 83.5002776 170.5 85.4333413 170.5 87 172.067214 87 174.000278M108 174.000278C108 175.932786 106.433341 177.5 104.500278 177.5 102.567214 177.5 101 175.932786 101 174.000278 101 172.067214 102.567214 170.5 104.500278 170.5 106.433341 170.5 108 172.067214 108 174.000278M128 174.000278C128 175.932786 126.433217 177.5 124.5 177.5 122.566783 177.5 121 175.932786 121 174.000278 121 172.067214 122.566783 170.5 124.5 170.5 126.433217 170.5 128 172.067214 128 174.000278M148 174.000278C148 175.932786 146.432786 177.5 144.499722 177.5 142.566659 177.5 141 175.932786 141 174.000278 141 172.067214 142.566659 170.5 144.499722 170.5 146.432786 170.5 148 172.067214 148 174.000278M168 174.000278C168 175.932786 166.432786 177.5 164.499722 177.5 162.566659 177.5 161 175.932786 161 174.000278 161 172.067214 162.566659 170.5 164.499722 170.5 166.432786 170.5 168 172.067214 168 174.000278M188 174.000278C188 175.932786 186.432786 177.5 184.499722 177.5 182.567214 177.5 181 175.932786 181 174.000278 181 172.067214 182.567214 170.5 184.499722 170.5 186.432786 170.5 188 172.067214 188 174.000278M208 174.000278C208 175.932786 206.432786 177.5 204.500278 177.5 202.567214 177.5 201 175.932786 201 174.000278 201 172.067214 202.567214 170.5 204.500278 170.5 206.432786 170.5 208 172.067214 208 174.000278M228 174.000278C228 175.932786 226.432786 177.5 224.500278 177.5 222.567214 177.5 221 175.932786 221 174.000278 221 172.067214 222.567214 170.5 224.500278 170.5 226.432786 170.5 228 172.067214 228 174.000278M249 174.000278C249 175.932786 247.433341 177.5 245.500278 177.5 243.567214 177.5 242 175.932786 242 174.000278 242 172.067214 243.567214 170.5 245.500278 170.5 247.433341 170.5 249 172.067214 249 174.000278M269 174.000278C269 175.932786 267.433341 177.5 265.500278 177.5 263.567214 177.5 262 175.932786 262 174.000278 262 172.067214 263.567214 170.5 265.500278 170.5 267.433341 170.5 269 172.067214 269 174.000278"/>
      <g transform="translate(282 170.5)">
        <mask id="livestream-bg_mobile-r" fill="#fff">
          <use xlink:href="#livestream-bg_mobile-q"/>
        </mask>
        <path fill="#E8E9ED" d="M6.8089,4.09754286 C6.8089,6.08668571 5.28882308,7.69982857 3.4139,7.69982857 C1.53897692,7.69982857 0.0194384615,6.08668571 0.0194384615,4.09754286 C0.0194384615,2.10782857 1.53897692,0.494685714 3.4139,0.494685714 C5.28882308,0.494685714 6.8089,2.10782857 6.8089,4.09754286" mask="url(#livestream-bg_mobile-r)"/>
      </g>
      <path fill="#E8E9ED" d="M7 196.000278C7 197.932786 5.43278611 199.5 3.49972242 199.5 1.56665874 199.5 0 197.932786 0 196.000278 0 194.067214 1.56665874 192.5 3.49972242 192.5 5.43278611 192.5 7 194.067214 7 196.000278M27 196.000278C27 197.932786 25.4327861 199.5 23.4997224 199.5 21.5672139 199.5 20 197.932786 20 196.000278 20 194.067214 21.5672139 192.5 23.4997224 192.5 25.4327861 192.5 27 194.067214 27 196.000278M47 196.000278C47 197.932786 45.4327861 199.5 43.4997224 199.5 41.5672139 199.5 40 197.932786 40 196.000278 40 194.067214 41.5672139 192.5 43.4997224 192.5 45.4327861 192.5 47 194.067214 47 196.000278M67 196.000278C67 197.932786 65.4327861 199.5 63.5002776 199.5 61.5672139 199.5 60 197.932786 60 196.000278 60 194.067214 61.5672139 192.5 63.5002776 192.5 65.4327861 192.5 67 194.067214 67 196.000278M87 196.000278C87 197.932786 85.4333413 199.5 83.5002776 199.5 81.5672139 199.5 80 197.932786 80 196.000278 80 194.067214 81.5672139 192.5 83.5002776 192.5 85.4333413 192.5 87 194.067214 87 196.000278M108 196.000278C108 197.932786 106.433341 199.5 104.500278 199.5 102.567214 199.5 101 197.932786 101 196.000278 101 194.067214 102.567214 192.5 104.500278 192.5 106.433341 192.5 108 194.067214 108 196.000278M128 196.000278C128 197.932786 126.433217 199.5 124.5 199.5 122.566783 199.5 121 197.932786 121 196.000278 121 194.067214 122.566783 192.5 124.5 192.5 126.433217 192.5 128 194.067214 128 196.000278M148 196.000278C148 197.932786 146.432786 199.5 144.499722 199.5 142.566659 199.5 141 197.932786 141 196.000278 141 194.067214 142.566659 192.5 144.499722 192.5 146.432786 192.5 148 194.067214 148 196.000278M168 196.000278C168 197.932786 166.432786 199.5 164.499722 199.5 162.566659 199.5 161 197.932786 161 196.000278 161 194.067214 162.566659 192.5 164.499722 192.5 166.432786 192.5 168 194.067214 168 196.000278M188 196.000278C188 197.932786 186.432786 199.5 184.499722 199.5 182.567214 199.5 181 197.932786 181 196.000278 181 194.067214 182.567214 192.5 184.499722 192.5 186.432786 192.5 188 194.067214 188 196.000278M208 196.000278C208 197.932786 206.432786 199.5 204.500278 199.5 202.567214 199.5 201 197.932786 201 196.000278 201 194.067214 202.567214 192.5 204.500278 192.5 206.432786 192.5 208 194.067214 208 196.000278M228 196.000278C228 197.932786 226.432786 199.5 224.500278 199.5 222.567214 199.5 221 197.932786 221 196.000278 221 194.067214 222.567214 192.5 224.500278 192.5 226.432786 192.5 228 194.067214 228 196.000278M249 196.000278C249 197.932786 247.433341 199.5 245.500278 199.5 243.567214 199.5 242 197.932786 242 196.000278 242 194.067214 243.567214 192.5 245.500278 192.5 247.433341 192.5 249 194.067214 249 196.000278M269 196.000278C269 197.932786 267.433341 199.5 265.500278 199.5 263.567214 199.5 262 197.932786 262 196.000278 262 194.067214 263.567214 192.5 265.500278 192.5 267.433341 192.5 269 194.067214 269 196.000278"/>
      <g transform="translate(282 191.5)">
        <mask id="livestream-bg_mobile-t" fill="#fff">
          <use xlink:href="#livestream-bg_mobile-s"/>
        </mask>
        <path fill="#E8E9ED" d="M6.8089,4.05234286 C6.8089,6.04148571 5.28882308,7.65462857 3.4139,7.65462857 C1.53897692,7.65462857 0.0194384615,6.04148571 0.0194384615,4.05234286 C0.0194384615,2.06262857 1.53897692,0.449485714 3.4139,0.449485714 C5.28882308,0.449485714 6.8089,2.06262857 6.8089,4.05234286" mask="url(#livestream-bg_mobile-t)"/>
      </g>
      <path fill="#E8E9ED" d="M7 216.999722C7 218.932786 5.43278611 220.5 3.49972242 220.5 1.56665874 220.5 0 218.932786 0 216.999722 0 215.067214 1.56665874 213.5 3.49972242 213.5 5.43278611 213.5 7 215.067214 7 216.999722M27 216.999722C27 218.932786 25.4327861 220.5 23.4997224 220.5 21.5672139 220.5 20 218.932786 20 216.999722 20 215.067214 21.5672139 213.5 23.4997224 213.5 25.4327861 213.5 27 215.067214 27 216.999722M47 216.999722C47 218.932786 45.4327861 220.5 43.4997224 220.5 41.5672139 220.5 40 218.932786 40 216.999722 40 215.067214 41.5672139 213.5 43.4997224 213.5 45.4327861 213.5 47 215.067214 47 216.999722M67 216.999722C67 218.932786 65.4327861 220.5 63.5002776 220.5 61.5672139 220.5 60 218.932786 60 216.999722 60 215.067214 61.5672139 213.5 63.5002776 213.5 65.4327861 213.5 67 215.067214 67 216.999722M87 216.999722C87 218.932786 85.4333413 220.5 83.5002776 220.5 81.5672139 220.5 80 218.932786 80 216.999722 80 215.067214 81.5672139 213.5 83.5002776 213.5 85.4333413 213.5 87 215.067214 87 216.999722M108 216.999722C108 218.932786 106.433341 220.5 104.500278 220.5 102.567214 220.5 101 218.932786 101 216.999722 101 215.067214 102.567214 213.5 104.500278 213.5 106.433341 213.5 108 215.067214 108 216.999722M128 216.999722C128 218.932786 126.433217 220.5 124.5 220.5 122.566783 220.5 121 218.932786 121 216.999722 121 215.067214 122.566783 213.5 124.5 213.5 126.433217 213.5 128 215.067214 128 216.999722M148 216.999722C148 218.932786 146.432786 220.5 144.499722 220.5 142.566659 220.5 141 218.932786 141 216.999722 141 215.067214 142.566659 213.5 144.499722 213.5 146.432786 213.5 148 215.067214 148 216.999722M168 216.999722C168 218.932786 166.432786 220.5 164.499722 220.5 162.566659 220.5 161 218.932786 161 216.999722 161 215.067214 162.566659 213.5 164.499722 213.5 166.432786 213.5 168 215.067214 168 216.999722M188 216.999722C188 218.932786 186.432786 220.5 184.499722 220.5 182.567214 220.5 181 218.932786 181 216.999722 181 215.067214 182.567214 213.5 184.499722 213.5 186.432786 213.5 188 215.067214 188 216.999722M208 216.999722C208 218.932786 206.432786 220.5 204.500278 220.5 202.567214 220.5 201 218.932786 201 216.999722 201 215.067214 202.567214 213.5 204.500278 213.5 206.432786 213.5 208 215.067214 208 216.999722M228 216.999722C228 218.932786 226.432786 220.5 224.500278 220.5 222.567214 220.5 221 218.932786 221 216.999722 221 215.067214 222.567214 213.5 224.500278 213.5 226.432786 213.5 228 215.067214 228 216.999722M249 216.999722C249 218.932786 247.433341 220.5 245.500278 220.5 243.567214 220.5 242 218.932786 242 216.999722 242 215.067214 243.567214 213.5 245.500278 213.5 247.433341 213.5 249 215.067214 249 216.999722M269 216.999722C269 218.932786 267.433341 220.5 265.500278 220.5 263.567214 220.5 262 218.932786 262 216.999722 262 215.067214 263.567214 213.5 265.500278 213.5 267.433341 213.5 269 215.067214 269 216.999722"/>
      <g transform="translate(282 213.5)">
        <mask id="livestream-bg_mobile-v" fill="#fff">
          <use xlink:href="#livestream-bg_mobile-u"/>
        </mask>
        <path fill="#E8E9ED" d="M6.8089,4.00685714 C6.8089,5.99657143 5.28882308,7.60971429 3.4139,7.60971429 C1.53897692,7.60971429 0.0194384615,5.99657143 0.0194384615,4.00685714 C0.0194384615,2.01771429 1.53897692,0.404571429 3.4139,0.404571429 C5.28882308,0.404571429 6.8089,2.01771429 6.8089,4.00685714" mask="url(#livestream-bg_mobile-v)"/>
      </g>
      <path fill="#E8E9ED" d="M7 237.999722C7 239.932786 5.43278611 241.5 3.49972242 241.5 1.56665874 241.5 0 239.932786 0 237.999722 0 236.066659 1.56665874 234.5 3.49972242 234.5 5.43278611 234.5 7 236.066659 7 237.999722M27 237.999722C27 239.932786 25.4327861 241.5 23.4997224 241.5 21.5672139 241.5 20 239.932786 20 237.999722 20 236.066659 21.5672139 234.5 23.4997224 234.5 25.4327861 234.5 27 236.066659 27 237.999722M47 237.999722C47 239.932786 45.4327861 241.5 43.4997224 241.5 41.5672139 241.5 40 239.932786 40 237.999722 40 236.066659 41.5672139 234.5 43.4997224 234.5 45.4327861 234.5 47 236.066659 47 237.999722M67 237.999722C67 239.932786 65.4327861 241.5 63.5002776 241.5 61.5672139 241.5 60 239.932786 60 237.999722 60 236.066659 61.5672139 234.5 63.5002776 234.5 65.4327861 234.5 67 236.066659 67 237.999722M87 237.999722C87 239.932786 85.4333413 241.5 83.5002776 241.5 81.5672139 241.5 80 239.932786 80 237.999722 80 236.066659 81.5672139 234.5 83.5002776 234.5 85.4333413 234.5 87 236.066659 87 237.999722M108 237.999722C108 239.932786 106.433341 241.5 104.500278 241.5 102.567214 241.5 101 239.932786 101 237.999722 101 236.066659 102.567214 234.5 104.500278 234.5 106.433341 234.5 108 236.066659 108 237.999722M128 237.999722C128 239.932786 126.433217 241.5 124.5 241.5 122.566783 241.5 121 239.932786 121 237.999722 121 236.066659 122.566783 234.5 124.5 234.5 126.433217 234.5 128 236.066659 128 237.999722M148 237.999722C148 239.932786 146.432786 241.5 144.499722 241.5 142.566659 241.5 141 239.932786 141 237.999722 141 236.066659 142.566659 234.5 144.499722 234.5 146.432786 234.5 148 236.066659 148 237.999722M168 237.999722C168 239.932786 166.432786 241.5 164.499722 241.5 162.566659 241.5 161 239.932786 161 237.999722 161 236.066659 162.566659 234.5 164.499722 234.5 166.432786 234.5 168 236.066659 168 237.999722M188 237.999722C188 239.932786 186.432786 241.5 184.499722 241.5 182.567214 241.5 181 239.932786 181 237.999722 181 236.066659 182.567214 234.5 184.499722 234.5 186.432786 234.5 188 236.066659 188 237.999722M208 237.999722C208 239.932786 206.432786 241.5 204.500278 241.5 202.567214 241.5 201 239.932786 201 237.999722 201 236.066659 202.567214 234.5 204.500278 234.5 206.432786 234.5 208 236.066659 208 237.999722M228 237.999722C228 239.932786 226.432786 241.5 224.500278 241.5 222.567214 241.5 221 239.932786 221 237.999722 221 236.066659 222.567214 234.5 224.500278 234.5 226.432786 234.5 228 236.066659 228 237.999722M249 237.999722C249 239.932786 247.433341 241.5 245.500278 241.5 243.567214 241.5 242 239.932786 242 237.999722 242 236.066659 243.567214 234.5 245.500278 234.5 247.433341 234.5 249 236.066659 249 237.999722M269 237.999722C269 239.932786 267.433341 241.5 265.500278 241.5 263.567214 241.5 262 239.932786 262 237.999722 262 236.066659 263.567214 234.5 265.500278 234.5 267.433341 234.5 269 236.066659 269 237.999722"/>
      <g transform="translate(282 234.5)">
        <mask id="livestream-bg_mobile-x" fill="#fff">
          <use xlink:href="#livestream-bg_mobile-w"/>
        </mask>
        <path fill="#E8E9ED" d="M6.8089,3.96165714 C6.8089,5.95137143 5.28882308,7.56451429 3.4139,7.56451429 C1.53897692,7.56451429 0.0194384615,5.95137143 0.0194384615,3.96165714 C0.0194384615,1.97194286 1.53897692,0.359371429 3.4139,0.359371429 C5.28882308,0.359371429 6.8089,1.97194286 6.8089,3.96165714" mask="url(#livestream-bg_mobile-x)"/>
      </g>
      <path fill="#E8E9ED" d="M7 259.999722C7 261.932786 5.43278611 263.5 3.49972242 263.5 1.56665874 263.5 0 261.932786 0 259.999722 0 258.066659 1.56665874 256.5 3.49972242 256.5 5.43278611 256.5 7 258.066659 7 259.999722M27 259.999722C27 261.932786 25.4327861 263.5 23.4997224 263.5 21.5672139 263.5 20 261.932786 20 259.999722 20 258.066659 21.5672139 256.5 23.4997224 256.5 25.4327861 256.5 27 258.066659 27 259.999722M47 259.999722C47 261.932786 45.4327861 263.5 43.4997224 263.5 41.5672139 263.5 40 261.932786 40 259.999722 40 258.066659 41.5672139 256.5 43.4997224 256.5 45.4327861 256.5 47 258.066659 47 259.999722M67 259.999722C67 261.932786 65.4327861 263.5 63.5002776 263.5 61.5672139 263.5 60 261.932786 60 259.999722 60 258.066659 61.5672139 256.5 63.5002776 256.5 65.4327861 256.5 67 258.066659 67 259.999722M87 259.999722C87 261.932786 85.4333413 263.5 83.5002776 263.5 81.5672139 263.5 80 261.932786 80 259.999722 80 258.066659 81.5672139 256.5 83.5002776 256.5 85.4333413 256.5 87 258.066659 87 259.999722M108 259.999722C108 261.932786 106.433341 263.5 104.500278 263.5 102.567214 263.5 101 261.932786 101 259.999722 101 258.066659 102.567214 256.5 104.500278 256.5 106.433341 256.5 108 258.066659 108 259.999722M128 259.999722C128 261.932786 126.433217 263.5 124.5 263.5 122.566783 263.5 121 261.932786 121 259.999722 121 258.066659 122.566783 256.5 124.5 256.5 126.433217 256.5 128 258.066659 128 259.999722M148 259.999722C148 261.932786 146.432786 263.5 144.499722 263.5 142.566659 263.5 141 261.932786 141 259.999722 141 258.066659 142.566659 256.5 144.499722 256.5 146.432786 256.5 148 258.066659 148 259.999722M168 259.999722C168 261.932786 166.432786 263.5 164.499722 263.5 162.566659 263.5 161 261.932786 161 259.999722 161 258.066659 162.566659 256.5 164.499722 256.5 166.432786 256.5 168 258.066659 168 259.999722M188 259.999722C188 261.932786 186.432786 263.5 184.499722 263.5 182.567214 263.5 181 261.932786 181 259.999722 181 258.066659 182.567214 256.5 184.499722 256.5 186.432786 256.5 188 258.066659 188 259.999722M208 259.999722C208 261.932786 206.432786 263.5 204.500278 263.5 202.567214 263.5 201 261.932786 201 259.999722 201 258.066659 202.567214 256.5 204.500278 256.5 206.432786 256.5 208 258.066659 208 259.999722M228 259.999722C228 261.932786 226.432786 263.5 224.500278 263.5 222.567214 263.5 221 261.932786 221 259.999722 221 258.066659 222.567214 256.5 224.500278 256.5 226.432786 256.5 228 258.066659 228 259.999722M249 259.999722C249 261.932786 247.433341 263.5 245.500278 263.5 243.567214 263.5 242 261.932786 242 259.999722 242 258.066659 243.567214 256.5 245.500278 256.5 247.433341 256.5 249 258.066659 249 259.999722M269 259.999722C269 261.932786 267.433341 263.5 265.500278 263.5 263.567214 263.5 262 261.932786 262 259.999722 262 258.066659 263.567214 256.5 265.500278 256.5 267.433341 256.5 269 258.066659 269 259.999722"/>
      <g transform="translate(282 255.5)">
        <mask id="livestream-bg_mobile-z" fill="#fff">
          <use xlink:href="#livestream-bg_mobile-y"/>
        </mask>
        <path fill="#E8E9ED" d="M6.8089,3.91645714 C6.8089,5.90617143 5.28882308,7.51931429 3.4139,7.51931429 C1.53897692,7.51931429 0.0194384615,5.90617143 0.0194384615,3.91645714 C0.0194384615,1.92674286 1.53897692,0.314171429 3.4139,0.314171429 C5.28882308,0.314171429 6.8089,1.92674286 6.8089,3.91645714" mask="url(#livestream-bg_mobile-z)"/>
      </g>
      <path fill="#E8E9ED" d="M7 280.999722C7 282.932786 5.43278611 284.5 3.49972242 284.5 1.56665874 284.5 0 282.932786 0 280.999722 0 279.066659 1.56665874 277.5 3.49972242 277.5 5.43278611 277.5 7 279.066659 7 280.999722M27 280.999722C27 282.932786 25.4327861 284.5 23.4997224 284.5 21.5672139 284.5 20 282.932786 20 280.999722 20 279.066659 21.5672139 277.5 23.4997224 277.5 25.4327861 277.5 27 279.066659 27 280.999722M47 280.999722C47 282.932786 45.4327861 284.5 43.4997224 284.5 41.5672139 284.5 40 282.932786 40 280.999722 40 279.066659 41.5672139 277.5 43.4997224 277.5 45.4327861 277.5 47 279.066659 47 280.999722M67 280.999722C67 282.932786 65.4327861 284.5 63.5002776 284.5 61.5672139 284.5 60 282.932786 60 280.999722 60 279.066659 61.5672139 277.5 63.5002776 277.5 65.4327861 277.5 67 279.066659 67 280.999722M87 280.999722C87 282.932786 85.4333413 284.5 83.5002776 284.5 81.5672139 284.5 80 282.932786 80 280.999722 80 279.066659 81.5672139 277.5 83.5002776 277.5 85.4333413 277.5 87 279.066659 87 280.999722M108 280.999722C108 282.932786 106.433341 284.5 104.500278 284.5 102.567214 284.5 101 282.932786 101 280.999722 101 279.066659 102.567214 277.5 104.500278 277.5 106.433341 277.5 108 279.066659 108 280.999722M128 280.999722C128 282.932786 126.433217 284.5 124.5 284.5 122.566783 284.5 121 282.932786 121 280.999722 121 279.066659 122.566783 277.5 124.5 277.5 126.433217 277.5 128 279.066659 128 280.999722M148 280.999722C148 282.932786 146.432786 284.5 144.499722 284.5 142.566659 284.5 141 282.932786 141 280.999722 141 279.066659 142.566659 277.5 144.499722 277.5 146.432786 277.5 148 279.066659 148 280.999722M168 280.999722C168 282.932786 166.432786 284.5 164.499722 284.5 162.566659 284.5 161 282.932786 161 280.999722 161 279.066659 162.566659 277.5 164.499722 277.5 166.432786 277.5 168 279.066659 168 280.999722M188 280.999722C188 282.932786 186.432786 284.5 184.499722 284.5 182.567214 284.5 181 282.932786 181 280.999722 181 279.066659 182.567214 277.5 184.499722 277.5 186.432786 277.5 188 279.066659 188 280.999722M208 280.999722C208 282.932786 206.432786 284.5 204.500278 284.5 202.567214 284.5 201 282.932786 201 280.999722 201 279.066659 202.567214 277.5 204.500278 277.5 206.432786 277.5 208 279.066659 208 280.999722M228 280.999722C228 282.932786 226.432786 284.5 224.500278 284.5 222.567214 284.5 221 282.932786 221 280.999722 221 279.066659 222.567214 277.5 224.500278 277.5 226.432786 277.5 228 279.066659 228 280.999722M249 280.999722C249 282.932786 247.433341 284.5 245.500278 284.5 243.567214 284.5 242 282.932786 242 280.999722 242 279.066659 243.567214 277.5 245.500278 277.5 247.433341 277.5 249 279.066659 249 280.999722M269 280.999722C269 282.932786 267.433341 284.5 265.500278 284.5 263.567214 284.5 262 282.932786 262 280.999722 262 279.066659 263.567214 277.5 265.500278 277.5 267.433341 277.5 269 279.066659 269 280.999722"/>
      <g transform="translate(282 277.5)">
        <mask id="livestream-bg_mobile-B" fill="#fff">
          <use xlink:href="#livestream-bg_mobile-A"/>
        </mask>
        <path fill="#E8E9ED" d="M6.8089,3.87125714 C6.8089,5.86097143 5.28882308,7.47411429 3.4139,7.47411429 C1.53897692,7.47411429 0.0194384615,5.86097143 0.0194384615,3.87125714 C0.0194384615,1.88154286 1.53897692,0.268971429 3.4139,0.268971429 C5.28882308,0.268971429 6.8089,1.88154286 6.8089,3.87125714" mask="url(#livestream-bg_mobile-B)"/>
      </g>
      <path fill="#E8E9ED" d="M7 302C7 303.933217 5.43278611 305.5 3.49972242 305.5 1.56665874 305.5 0 303.933217 0 302 0 300.066783 1.56665874 298.5 3.49972242 298.5 5.43278611 298.5 7 300.066783 7 302M27 302C27 303.933217 25.4327861 305.5 23.4997224 305.5 21.5672139 305.5 20 303.933217 20 302 20 300.066783 21.5672139 298.5 23.4997224 298.5 25.4327861 298.5 27 300.066783 27 302M47 302C47 303.933217 45.4327861 305.5 43.4997224 305.5 41.5672139 305.5 40 303.933217 40 302 40 300.066783 41.5672139 298.5 43.4997224 298.5 45.4327861 298.5 47 300.066783 47 302M67 302C67 303.933217 65.4327861 305.5 63.5002776 305.5 61.5672139 305.5 60 303.933217 60 302 60 300.066783 61.5672139 298.5 63.5002776 298.5 65.4327861 298.5 67 300.066783 67 302M87 302C87 303.933217 85.4333413 305.5 83.5002776 305.5 81.5672139 305.5 80 303.933217 80 302 80 300.066783 81.5672139 298.5 83.5002776 298.5 85.4333413 298.5 87 300.066783 87 302M108 302C108 303.933217 106.433341 305.5 104.500278 305.5 102.567214 305.5 101 303.933217 101 302 101 300.066783 102.567214 298.5 104.500278 298.5 106.433341 298.5 108 300.066783 108 302M128 302C128 303.933217 126.433217 305.5 124.5 305.5 122.566783 305.5 121 303.933217 121 302 121 300.066783 122.566783 298.5 124.5 298.5 126.433217 298.5 128 300.066783 128 302M148 302C148 303.933217 146.432786 305.5 144.499722 305.5 142.566659 305.5 141 303.933217 141 302 141 300.066783 142.566659 298.5 144.499722 298.5 146.432786 298.5 148 300.066783 148 302M168 302C168 303.933217 166.432786 305.5 164.499722 305.5 162.566659 305.5 161 303.933217 161 302 161 300.066783 162.566659 298.5 164.499722 298.5 166.432786 298.5 168 300.066783 168 302M188 302C188 303.933217 186.432786 305.5 184.499722 305.5 182.567214 305.5 181 303.933217 181 302 181 300.066783 182.567214 298.5 184.499722 298.5 186.432786 298.5 188 300.066783 188 302M208 302C208 303.933217 206.432786 305.5 204.500278 305.5 202.567214 305.5 201 303.933217 201 302 201 300.066783 202.567214 298.5 204.500278 298.5 206.432786 298.5 208 300.066783 208 302M228 302C228 303.933217 226.432786 305.5 224.500278 305.5 222.567214 305.5 221 303.933217 221 302 221 300.066783 222.567214 298.5 224.500278 298.5 226.432786 298.5 228 300.066783 228 302M249 302C249 303.933217 247.433341 305.5 245.500278 305.5 243.567214 305.5 242 303.933217 242 302 242 300.066783 243.567214 298.5 245.500278 298.5 247.433341 298.5 249 300.066783 249 302M269 302C269 303.933217 267.433341 305.5 265.500278 305.5 263.567214 305.5 262 303.933217 262 302 262 300.066783 263.567214 298.5 265.500278 298.5 267.433341 298.5 269 300.066783 269 302"/>
      <g transform="translate(282 298.5)">
        <mask id="livestream-bg_mobile-D" fill="#fff">
          <use xlink:href="#livestream-bg_mobile-C"/>
        </mask>
        <path fill="#E8E9ED" d="M6.8089,3.60532308 C6.8089,5.48024615 5.28882308,6.99978462 3.4139,6.99978462 C1.53897692,6.99978462 0.0194384615,5.48024615 0.0194384615,3.60532308 C0.0194384615,1.7304 1.53897692,0.210861538 3.4139,0.210861538 C5.28882308,0.210861538 6.8089,1.7304 6.8089,3.60532308" mask="url(#livestream-bg_mobile-D)"/>
      </g>
    </g>
    <g transform="translate(223 35)">
      <mask id="livestream-bg_mobile-F" fill="#fff">
        <use xlink:href="#livestream-bg_mobile-E"/>
      </mask>
      <path fill="#FBBC04" d="M52.6101036,12.1205359 C30.2501182,12.1205359 12.0596287,30.4028966 12.0596287,52.8758112 L12.0596287,146.122051 C12.0596287,168.594965 30.2501182,186.879464 52.6101036,186.879464 L145.387769,186.879464 C167.747755,186.879464 185.938244,168.594965 185.938244,146.122051 L185.938244,52.8758112 C185.938244,30.4028966 167.747755,12.1205359 145.387769,12.1205359 L52.6101036,12.1205359 Z M145.387769,199 L52.6101036,199 C23.6001977,199 0,175.278471 0,146.122051 L0,52.8758112 C0,23.7193906 23.6001977,0 52.6101036,0 L145.387769,0 C174.397675,0 198,23.7193906 198,52.8758112 L198,146.122051 C198,175.278471 174.397675,199 145.387769,199 L145.387769,199 Z" mask="url(#livestream-bg_mobile-F)"/>
    </g>
    <g transform="translate(178)">
      <mask id="livestream-bg_mobile-H" fill="#fff">
        <use xlink:href="#livestream-bg_mobile-G"/>
      </mask>
      <path fill="#4283F2" d="M111.179669,53.7821395 L20.463416,1.83304971 C11.3682568,-3.37504084 0,3.13472908 0,13.5509102 L0,117.44909 C0,127.865271 11.3682568,134.375041 20.463416,129.16695 L111.179669,77.2178605 C120.273444,72.0097699 120.273444,58.9902301 111.179669,53.7821395" mask="url(#livestream-bg_mobile-H)"/>
    </g>
  </g>
</svg>
